<?xml version="1.0" encoding="utf-8"?>
<!-- Generator: Adobe Illustrator 19.2.0, SVG Export Plug-In . SVG Version: 6.00 Build 0)  -->
<svg version="1.1" id="Layer_1" xmlns="http://www.w3.org/2000/svg" xmlns:xlink="http://www.w3.org/1999/xlink" x="0px" y="0px"
	 viewBox="0 0 288 288" style="enable-background:new 0 0 288 288;" xml:space="preserve">
<style type="text/css">
	.st0{fill:#188a44;}
</style>
<g>
	<g>
		<path d="M82.9,53.4c-1,0.6-1.9,1.2-2.8,1.8c-2.9-4.7-5.9-9.5-8.9-14.3c1.5-0.9,3-1.9,4.5-2.7c0.2-0.1,0.7,0.2,1,0.4
			c3.4,2.3,6.8,4.6,10.2,6.8c0.3,0.2,0.6,0.4,1,0.4c-2.3-3.6-4.5-7.3-6.8-11c0.9-0.6,1.8-1.2,2.8-1.8c3,4.8,5.9,9.5,8.9,14.3
			c-1.5,0.9-3,1.9-4.4,2.7c-0.2,0.1-0.7-0.1-0.9-0.3c-3.6-2.4-7.3-4.9-10.9-7.3c-0.1-0.1-0.3-0.1-0.7-0.3
			C78.3,46,80.6,49.7,82.9,53.4z"/>
		<path d="M261.9,157.4c-4.3-0.7-8.6-1.4-12.9-2.1c0.2-1.1,0.3-2.1,0.5-3.3c5.5,0.9,11,1.8,16.6,2.7c-0.3,1.8-0.5,3.4-0.9,5.1
			c0,0.2-0.5,0.4-0.7,0.5c-4.2,1.2-8.4,2.3-12.6,3.4c-0.2,0.1-0.4,0.1-0.9,0.3c4.6,0.7,8.9,1.5,13.3,2.2c-0.2,1.1-0.4,2.2-0.5,3.3
			c-5.6-0.9-11-1.8-16.6-2.7c0.3-1.8,0.6-3.5,0.9-5.2c0-0.2,0.6-0.4,0.9-0.5c4.2-1.2,8.5-2.3,12.7-3.4c0.1,0,0.2-0.1,0.3-0.1
			C261.9,157.5,261.9,157.5,261.9,157.4z"/>
		<path d="M214.4,221.8c3.6,4.5,7,8.9,10.5,13.3c-3,2-5.3,5.1-9.1,5.9c-1.5,0.4-3,0.3-4.4-0.5c-3-1.7-5-4.1-5.4-7.5
			c-0.3-2.3,0.5-4.3,2.1-5.8C210.1,225.3,212.2,223.6,214.4,221.8z M213.1,226.3c-2,1.5-3.9,2.9-3.5,5.5c0.4,2.8,2.1,4.9,4.8,5.8
			c2.5,0.8,4.1-0.8,5.8-2.2C217.8,232.3,215.5,229.3,213.1,226.3z"/>
		<path d="M245.3,173.5c5.3,2,10.5,4,15.8,6c-1,2.6-1.9,5.1-3.1,7.5c-1.7,3.3-4.5,4.6-8.1,3.9c-2.9-0.6-5.4-1.8-6.8-4.6
			c-1-1.9-0.9-4-0.3-6C243.5,178.1,244.4,175.9,245.3,173.5z M246.4,178c-1,2.3-1.9,4.5-0.1,6.7c1.8,2.1,4.2,2.9,6.9,2.4
			c2.5-0.5,3.3-2.7,3.9-5C253.6,180.7,250.1,179.4,246.4,178z"/>
		<path d="M29.9,193.6c-1-2.9-2.1-5.7-2.9-8.5c-0.6-1.9,0.3-3.5,1.8-4.4c1.8-1,3.3-0.8,4.9,0.7c0.1,0.1,0.2,0.1,0.3,0.2
			c0-0.2,0.1-0.3,0.1-0.4c0.1-2.4,0.9-3.6,2.9-4.2c2-0.7,3.8-0.2,4.9,1.8c1.2,2.1,2.1,4.3,3.1,6.5c0.3,0.6,0.5,1.2,0.8,2
			C40.4,189.4,35.3,191.4,29.9,193.6z M37.1,186.7c1.8-0.7,3.3-1.3,5.1-2c-0.6-1.2-1.1-2.3-1.8-3.3c-0.6-0.9-1.6-1.1-2.6-0.8
			c-1.1,0.4-1.8,1.2-1.6,2.3C36.4,184.2,36.8,185.4,37.1,186.7z M35.3,187.5c-0.6-1.1-1-2.2-1.7-3.1c-0.6-0.9-1.6-1-2.6-0.6
			c-0.9,0.4-1.5,1.1-1.3,2.2c0.2,1.1,0.6,2.1,1,3.3C32.3,188.7,33.7,188.1,35.3,187.5z"/>
		<path d="M40.1,111.8c-0.4,3.8-1.3,6.7-4.6,8.4c-3.8,1.9-11.3-0.2-12.7-5.2c-1-3.5,0.8-9.5,5.4-10.6c4.1-1,9.4,1,11,4.5
			C39.8,109.9,39.9,111.1,40.1,111.8z M32.5,116.9c0.2,0,0.3,0,0.5,0c2.1,0,3.6-1.1,4.1-2.9c0.5-1.7-0.2-3.4-2-4.5
			c-1.9-1.2-4-1.7-6.2-1.5c-1.7,0.2-2.9,1.1-3.4,2.7c-0.5,1.7,0,3.1,1.2,4.1C28.4,116.3,30.4,116.9,32.5,116.9z"/>
		<path d="M45.7,212.3c-4.7,0-8-2.8-9-6.7c-0.7-2.6-0.1-5,1.8-7c1.7-1.8,3.7-3.1,6.1-3.4c3.9-0.6,7,1.3,8.7,5.2
			c1.4,3.2,0.8,6.3-1.7,8.7C49.6,211,47.3,212.3,45.7,212.3z M44,208.7c2.6-0.4,5.2-1.8,6.6-4.7c1.1-2.2-0.4-4.8-2.7-5.2
			c-2.8-0.6-7.5,2.3-8.2,5.1C39,206.4,40.9,208.7,44,208.7z"/>
		<path d="M135.4,265.2c-6,0-8.9-4.1-8.2-10c0.4-2.9,1.6-5.3,4.5-6.6c3.3-1.5,8.9-0.8,10.9,3.2c2,3.9,0.8,9.8-2.6,12.1
			C138.8,264.8,137.4,265.2,135.4,265.2z M131,256.8c0.2,1.1,0.3,2.1,0.6,3c0.6,1.7,1.9,2.7,3.5,2.7c1.8,0.1,3.1-0.8,3.8-2.4
			c0.9-2.1,1.1-4.2,0.5-6.4c-0.5-1.9-1.8-3-3.4-3.1c-2.1-0.1-3.5,0.7-4.2,2.7C131.4,254.5,131.2,255.7,131,256.8z"/>
		<path d="M227.1,208.2c4.2,3.7,8.4,7.4,12.7,11.2c-2.1,2.2-4,4.5-6.1,6.4c-2.1,1.9-4.9,1.4-6.4-0.8c-0.9-1.4-0.7-2.8-0.1-4.3
			c-3.4,0.9-5.9-1.6-9.2-2.2c1-1.1,1.7-2,2.5-2.9c0.2-0.2,0.6-0.1,0.9,0c1.3,0.5,2.6,1,3.8,1.5c2.1,0.9,2.4,0.8,4-1
			c0.2-0.2,0.3-0.4,0.5-0.6c-0.9-0.8-1.7-1.5-2.5-2.3c-0.9-0.8-1.7-1.5-2.6-2.3C225.5,210.1,226.3,209.2,227.1,208.2z M231.7,217.2
			c-0.7,1-1.4,1.8-2,2.7c-0.6,1.1-0.3,2.2,0.7,2.9c0.9,0.7,1.9,0.7,2.8-0.2c0.7-0.7,1.4-1.4,2.1-2.2
			C234.2,219.4,233,218.4,231.7,217.2z"/>
		<path d="M28.4,94.2c1.4-2.6,2.5-5.3,4-7.7c1.6-2.6,4.4-2.9,6.6-1.1c1.2,1.1,1.4,2.5,1.2,4.2c2-1.7,4.2-0.7,6.3-0.7
			c1,0,1.9,0.2,3,0.3c-0.6,1.2-1,2.2-1.6,3.3c-0.1,0.2-0.5,0.3-0.7,0.3c-1.3-0.1-2.6-0.2-3.9-0.4c-2.8-0.3-3.2-0.1-4.2,2.7
			c2,1,4.1,2,6.2,3c-0.5,1.1-1,2.2-1.6,3.3C38.6,99.1,33.6,96.7,28.4,94.2z M36.7,94.1c0.4-0.8,0.7-1.4,0.9-2.1
			c0.1-0.3,0.2-0.6,0.3-1c0.3-1.2-0.2-2.2-1.3-2.7c-1.1-0.5-2-0.3-2.8,0.8c-0.6,0.9-1,1.8-1.5,2.8C33.8,92.7,35.2,93.4,36.7,94.1z"
			/>
		<path d="M118.1,256.2c-0.8-0.2-1.4-0.4-2.1-0.6c0.2-0.8,0.4-1.6,0.6-2.4c1.8,0.5,3.5,0.9,5.4,1.4c-0.1,0.5-0.2,1-0.3,1.5
			c-0.4,1.8-0.9,3.6-1.3,5.5c-0.2,0.7-0.4,1.1-1.3,1.1c-3.1,0-6-0.4-8.7-2.1c-3.4-2.3-4-5.2-3.5-8.5c0.6-3.8,3.1-6.4,6.6-7
			c3-0.6,6.8,0.3,9.7,2.2c-0.3,0.8-0.5,1.7-0.8,2.7c-1.6-1.2-3.3-1.9-5.2-2.1c-3.2-0.3-5.7,1.5-6.2,4.7c-0.2,1.1-0.2,2.3,0,3.4
			c0.5,2.4,3.6,4.4,6,3.9c0.2,0,0.4-0.3,0.5-0.5C117.6,258.2,117.8,257.3,118.1,256.2z"/>
		<path d="M53.4,72.4c-0.5,0.7-0.9,1.2-1.3,1.8c-0.7-0.5-1.3-0.9-2-1.5c1.1-1.5,2.1-3,3.2-4.5c0.6,0.4,1.2,0.9,1.8,1.3
			c1.4,1,2.8,2,4.2,3.1c0.2,0.2,0.5,0.6,0.4,0.8c-1.2,3.5-3,6.6-6.4,8.4c-5.1,2.7-11.8-1.8-12.1-7c-0.2-3.4,1.3-6.1,3.5-8.5
			c0,0,0.1-0.1,0.1-0.1c2.4-2.3,1.6-2.1,4-0.1c-1,0.9-2,1.8-2.9,2.9c-1.5,1.9-2.2,4-1,6.3c1.3,2.4,3.5,3.8,6.3,3.8
			c2,0,4.5-2.3,4.8-4.2c0-0.2-0.1-0.5-0.3-0.6C55.1,73.6,54.3,73.1,53.4,72.4z"/>
		<path d="M70.6,222.4c2.6,0.9,4.9,2.2,6.7,4.2c3.2,3.4,3.4,7.6,0.5,11.2c-2.8,3.5-7.2,4.4-11.2,2.2c-2.1-1.2-3.7-2.8-5.2-4.8
			c0.6-0.7,1.2-1.3,1.8-2c0.8,0.9,1.5,1.9,2.3,2.7c2.3,2.3,5.2,2.7,7.5,1.2c2.3-1.5,3.7-4.6,3-6.8c-0.5-1.9-2-3-3.7-3.7
			c-0.2-0.1-0.6,0-0.7,0.1c-0.7,0.8-1.3,1.6-2,2.4c0.6,0.5,1.1,0.9,1.7,1.4c-0.5,0.6-1,1.3-1.5,2c-1.5-1.2-2.9-2.3-4.4-3.5
			C67.3,226.6,69,224.5,70.6,222.4z"/>
		<path d="M239,189.8c2.5,3.2,4.8,6.2,7.2,9.2c1.2,1.5,2.3,3,3.5,4.4c0.4,0.4,0.4,0.8,0.1,1.2c-0.6,1-1.2,2-1.9,3
			c-0.2,0.2-0.6,0.5-0.8,0.4c-5.7-1-11.4-2-17.2-3.1c0.6-1.1,1.2-2,1.8-3c0.1-0.2,0.5-0.3,0.7-0.3c1,0.2,2,0.4,3,0.6
			c0.6,0.1,0.9,0,1.2-0.5c0.9-1.6,1.9-3.2,2.9-4.7c0.3-0.5,0.3-0.8-0.1-1.2c-0.6-0.7-1.1-1.5-1.8-2.2c-0.5-0.6-0.5-1-0.1-1.6
			C238,191.5,238.4,190.7,239,189.8z M246.3,204.7c0-0.1,0.1-0.1,0.1-0.2c-1.6-2-3.1-4-4.8-6c-1,1.6-1.9,3.1-2.8,4.7
			C241.4,203.7,243.9,204.2,246.3,204.7z"/>
		<path d="M250,147.4c-0.1-1.1-0.1-2.1-0.2-3.1c-0.1-0.6,0.2-1,0.8-1.2c1-0.3,1.9-0.7,2.8-1.1c0.3-0.1,0.6-0.6,0.6-0.9
			c0-1.8-0.1-3.7-0.1-5.5c0-0.6-0.2-1-0.8-1.2c-1-0.2-1.9-0.5-2.9-0.9c-0.3-0.1-0.6-0.5-0.6-0.8c-0.1-1,0-1.9,0-3
			c0.2,0,0.5,0.1,0.7,0.2c5.1,1.7,10.2,3.5,15.3,5.2c0.8,0.3,1.1,0.6,1,1.4c-0.1,1.1,0.1,2.2,0,3.3c0,0.3-0.2,0.6-0.5,0.7
			C260.8,142.9,255.5,145.1,250,147.4z M264,138c-2.7-0.9-5.1-1.7-7.4-2.5c0,1.9,0,3.6,0,5.4C259.1,140,261.4,139,264,138z"/>
		<path d="M56.4,53.5c1.1-1,2.1-2.1,3.2-3c0.2-0.2,0.6-0.2,0.8-0.1c5.2,2.5,10.4,5.1,15.8,7.7c-1,0.9-1.9,1.8-2.9,2.7
			c-1.3-0.7-2.6-1.3-4-2c-1.6,1.5-3.2,3-4.8,4.5c-0.2,0.2-0.2,0.6-0.1,0.9c0.4,1,0.8,1.9,1.2,2.9c0.2,0.5,0.2,0.8-0.3,1.2
			c-0.7,0.6-1.4,1.3-2.2,2C60.9,64.5,58.7,59,56.4,53.5z M63,61c1.4-1.3,2.7-2.5,4-3.8c-2.4-1.2-4.6-2.4-7.1-3.6
			C61,56.2,62,58.5,63,61z"/>
		<path d="M36.2,154.6c0.3,1.3,0.5,2.6,0.8,3.9c-1.1,0.6-2.1,1.3-3.2,1.9c-0.5,0.3-0.6,0.5-0.5,1.1c0.4,1.8,0.7,3.7,1.1,5.5
			c0.1,0.3,0.5,0.7,0.8,0.8c1,0.2,2,0.3,3,0.5c0.5,0.1,0.8,0.2,0.9,0.8c0.1,0.9,0.4,1.9,0.6,3c-2.2-0.4-4.3-0.7-6.4-1.1
			c-3.5-0.6-7-1.2-10.5-1.8c-0.6-0.1-0.9-0.3-1-0.9c-0.2-1.1-0.5-2.2-0.6-3.4c0-0.3,0.1-0.9,0.4-1.1
			C26.3,160.8,31.2,157.7,36.2,154.6z M31.9,167.4c-0.4-1.9-0.8-3.6-1.1-5.4c-2.3,1.4-4.4,2.7-6.5,4c0,0.1,0.1,0.1,0.1,0.2
			C26.7,166.6,29.2,167,31.9,167.4z"/>
		<path d="M178.3,23.3c1.3,0.5,2.5,0.9,3.7,1.3c0.2,0.1,0.4,0.5,0.4,0.7c0.5,2.1,0.9,4.1,1.3,6.3c0.3-0.2,0.6-0.4,0.9-0.6
			c1.4-1.1,2.8-2.2,4.2-3.3c0.2-0.2,0.6-0.4,0.9-0.3c1.1,0.3,2.2,0.8,3.5,1.2c-1.6,1.2-3.1,2.2-4.6,3.2c-0.9,0.6-1.8,1.3-2.7,1.9
			c-0.6,0.4-0.7,0.7-0.5,1.4c0.8,2.8,1.5,5.6,2.2,8.4c0.1,0.3,0.1,0.6,0.2,1c-1.4-0.5-2.6-0.9-3.8-1.5c-0.2-0.1-0.4-0.6-0.5-0.9
			c-0.4-2.1-0.8-4.1-1.3-6.2c0-0.2-0.1-0.4-0.2-0.7c-1.6,1.3-3.3,2.4-4.8,3.7c-1,0.9-2,1.2-3.2,0.5c-0.6-0.3-1.3-0.5-2.1-0.8
			c0.8-0.6,1.4-1,2.1-1.5c2-1.4,3.9-2.7,5.9-4c0.6-0.4,0.7-0.8,0.5-1.5c-0.7-2.5-1.3-5-1.9-7.5C178.4,24,178.4,23.7,178.3,23.3z"/>
		<path d="M239.3,64.4c2.2,3,4.4,5.9,6.5,8.8c-0.7,0.5-1.4,1-2.1,1.6c-1.5-2-2.9-3.9-4.3-5.8c-1.2,0.9-2.3,1.7-3.5,2.6
			c1.4,1.9,2.7,3.7,4.1,5.6c-0.7,0.5-1.3,1-2.1,1.6c-1.4-1.9-2.8-3.7-4.2-5.6c-1.2,0.9-2.4,1.8-3.7,2.7c1.5,2,2.9,4,4.4,6.1
			c-0.7,0.5-1.4,1-2.1,1.6c-2.2-3-4.4-6-6.7-9C230.3,71.1,234.7,67.8,239.3,64.4z"/>
		<path d="M157,36c1-5.6,2-11,3-16.6c3.6,0.7,7.1,1.3,10.8,2c-0.1,0.9-0.3,1.7-0.4,2.6c-1.8-0.3-3.5-0.6-5.2-0.9
			c-2-0.4-2-0.4-2.3,1.6c-0.1,0.8-0.3,1.5-0.4,2.3c2.3,0.4,4.5,0.8,6.8,1.3c-0.1,0.9-0.3,1.7-0.4,2.5c-2.3-0.4-4.6-0.8-6.9-1.2
			c-0.3,1.6-0.5,3-0.8,4.5c2.5,0.5,4.9,0.9,7.4,1.4c-0.2,0.9-0.3,1.7-0.5,2.6C164.3,37.3,160.7,36.7,157,36z"/>
		<path d="M243.9,98.2c0.3,1.5,0.5,3,0.9,4.4c0.2,0.7,0.6,1.3,1,1.8c0.5,0.7,1.2,0.9,2.1,0.7c0.8-0.2,1.2-0.8,1.3-1.6
			c0.2-1.6,0.3-3.3,0.4-4.9c0.2-1.9,1-3.2,2.9-3.9c1.7-0.6,3.3-0.2,4.5,1.1c2.1,2.1,2.9,4.9,3.3,7.8c-0.9,0.3-1.7,0.5-2.5,0.8
			c-0.3-1.2-0.4-2.3-0.7-3.4c-0.2-0.7-0.6-1.4-1-2c-0.4-0.7-1.1-1.1-2-0.9c-0.9,0.2-1.2,1-1.3,1.8c-0.1,1.1-0.1,2.1-0.2,3.2
			c0,0.7,0,1.5-0.2,2.2c-0.9,3.6-5.1,4.8-7.8,2.2c-1.9-1.8-2.6-4.3-3.1-6.8c-0.3-1.7-0.3-1.7,1.4-2.3
			C243.3,98.4,243.7,98.3,243.9,98.2z"/>
		<path d="M168.1,260.3c1.8-0.3,3.4-0.4,5.1-0.8c0.5-0.1,1-0.4,1.4-0.8c1.2-1,0.9-2.6-0.6-3.1c-1.6-0.5-3.3-0.7-4.9-1
			c-2.6-0.5-4-2.6-3.5-5.1c0.2-1.2,1-2,1.9-2.7c2.2-1.6,4.8-2,7.5-2.1c0.2,0.9,0.4,1.7,0.5,2.5c-1.4,0.2-2.7,0.3-3.9,0.6
			c-0.5,0.1-1.1,0.4-1.6,0.7c-0.7,0.4-1.2,1.1-0.9,1.8c0.2,0.5,0.8,1.1,1.4,1.3c1.4,0.4,2.8,0.4,4.3,0.7c2,0.3,3.5,1.3,3.9,3.3
			c0.5,2-0.1,3.7-1.8,5c-2.3,1.7-5.1,2-7.8,2.1c-0.2,0-0.5-0.3-0.6-0.5C168.3,261.5,168.2,260.8,168.1,260.3z"/>
		<path d="M116.8,21.2c0.2,1,0.4,1.9,0.6,2.7c-3.3,0-6.2,0.5-7.5,3.9c-0.9,2.2,0,5.5,2,7c2.9,2.2,5.6,0.9,8.4-0.7
			c0.3,0.7,0.5,1.4,0.7,2.1c0.1,0.2-0.1,0.6-0.3,0.7c-3.1,1.8-6.5,2.7-10,1.3c-2.9-1.2-4.3-3.6-4.8-6.6c-0.8-5.1,2.4-9.2,7.8-10.2
			C114.6,21.4,115.7,21.3,116.8,21.2z"/>
		<path d="M152.5,18.4c-0.1,1.2-0.1,2.1-0.1,3.1c-1.8,0-3.4,0-5.2,0c-0.1,4.6-0.2,9.1-0.3,13.7c-1.3,0-2.5,0-3.6,0
			c0-4.6,0-9.1,0-13.9c-1.3,0-2.7-0.1-4,0c-0.9,0.1-1.2-0.3-1.1-1.2c0.1-0.6,0.1-1.2,0.1-1.7C142.9,18.4,147.6,18.4,152.5,18.4z"/>
		<path d="M200.9,36.3c-1.6-0.9-3-1.7-4.5-2.6c0.5-0.9,1-1.7,1.5-2.6c4.1,2.4,8.2,4.7,12.4,7.1c-0.5,0.9-1,1.7-1.5,2.6
			c-1.5-0.9-3-1.7-4.6-2.6c-2.3,4-4.6,7.9-6.9,12c-1.1-0.6-2.2-1.2-3.3-1.9C196.4,44.3,198.6,40.3,200.9,36.3z"/>
		<path d="M247.9,122.4c-0.3-1.3-0.5-2.4-0.8-3.7c4.5-0.9,9-1.8,13.5-2.8c-0.3-1.7-0.7-3.4-1-5.1c1-0.2,1.9-0.4,3-0.6
			c1,4.7,1.9,9.3,2.9,14c-1,0.2-1.9,0.4-2.9,0.6c-0.4-1.7-0.7-3.4-1.1-5.1C256.9,120.6,252.5,121.5,247.9,122.4z"/>
		<path d="M146.9,252c-0.1-1-0.2-1.9-0.3-3c4.7-0.5,9.4-0.9,14.2-1.4c0.1,1,0.2,2,0.3,3c-1.8,0.2-3.4,0.4-5.2,0.5
			c0.4,4.5,0.9,9,1.4,13.6c-1.2,0.1-2.5,0.3-3.8,0.4c-0.2-2.2-0.4-4.3-0.7-6.5c-0.2-2.2-0.4-4.3-0.6-6.5c0-0.5-0.2-0.7-0.8-0.7
			C149.9,251.7,148.5,251.8,146.9,252z"/>
		<path d="M19.1,149.9c0-1.3,0-2.5,0-3.8c4.5-0.1,9.1-0.2,13.6-0.4c0-2.1,0.1-4,0-6c0-0.9,0.2-1.4,1.2-1.3c0.6,0.1,1.1,0,1.9,0
			c0,3.7,0,7.3,0,11C30.4,149.7,24.8,149.8,19.1,149.9z"/>
		<path d="M224.8,68.5c-0.8,0.8-1.4,1.5-2.1,2.2c-2.6-2.6-5.1-5.2-7.6-7.8c3.9-3.9,7.8-7.8,11.8-11.7c0.7,0.8,1.5,1.7,2.4,2.6
			c-3.1,3.1-6.4,6.3-9.8,9.5C221.4,65.3,223.1,66.9,224.8,68.5z"/>
		<path d="M56.6,210.7c0.8-0.7,1.5-1.3,2.3-2c2.4,2.7,4.9,5.4,7.3,8.2c-4.2,3.7-8.3,7.5-12.6,11.2c-0.8-0.9-1.6-1.8-2.5-2.8
			c3.4-3,6.8-6.1,10.3-9.2C59.8,214.3,58.3,212.6,56.6,210.7z"/>
		<path d="M209,58.1c-1-0.8-2-1.5-3-2.3c3.4-4.5,6.8-8.9,10.2-13.4c1,0.8,2,1.5,3,2.3C215.8,49.2,212.4,53.6,209,58.1z"/>
		<path d="M102.7,43c-1.2,0.5-2.3,1-3.5,1.5C97,39.3,94.8,34.2,92.6,29c1.2-0.5,2.2-1,3.5-1.5C98.3,32.6,100.4,37.8,102.7,43z"/>
		<path d="M192.1,248.6c-0.5-1.1-1-2.1-1.5-3.1c1.2-0.6,2.3-1.1,3.5-1.7c0.5,1,1,2,1.5,3.2C194.4,247.5,193.3,248,192.1,248.6z"/>
		<path d="M94.2,245.4c-0.5,1.1-1,2.1-1.5,3.1c-1.2-0.6-2.3-1.1-3.5-1.6c0.5-1.1,1-2.1,1.5-3.2C91.9,244.3,93,244.8,94.2,245.4z"/>
	</g>
	<path class="st0" d="M53.8,141.9c0-49.6,40.2-89.8,89.9-89.8c50.1,0,89.6,40.7,89.9,89.4c0.2,49.5-39.9,90.3-89.9,90.3
		C94,231.8,53.7,191.5,53.8,141.9z M114.9,80.4c-0.4,0.1-0.8,0.2-1.1,0.3c-2.9,0.9-5.7,1.9-8.6,2.8c-0.7,0.2-1.1,0.6-1.4,1.3
		c-11.1,27.7-22.3,55.4-33.4,83.1c-0.1,0.3-0.2,0.7-0.4,1.1c6.2,3.2,12.3,6.4,18.5,9.6c1.5-3.7,2.9-7.4,4.3-11
		c1.4-3.6,2.9-7.3,4.3-10.9c1.4-3.7,2.9-7.3,4.3-11c1.4-3.6,2.8-7.3,4.3-10.9c1.4-3.6,2.8-7.2,4.3-10.8c0.1,1.7,0.2,3.5,0.3,5.2
		c0.2,4.6,0.4,9.1,0.5,13.7c0.1,5.2,0.7,10.4,0.1,15.7c-0.4,3.4-0.6,6.9-0.9,10.3c-0.4,5.2-0.9,10.4-1.3,15.6
		c-0.3,3.4-0.6,6.8-0.9,10.2c-0.4,4.3-0.8,8.7-1.1,13c0,0.4,0,0.7,0,1c0.9,0.2,72.6,0.3,73.6,0c0-0.7-0.1-1.4-0.1-2.1
		c-0.3-5-0.6-10-1-15.1c-0.2-3.3-0.4-6.5-0.6-9.8c-0.3-4.8-0.6-9.5-0.9-14.3c-0.2-2.7-0.4-5.3-0.5-8c-0.2-2.6-0.4-5.2-0.2-7.8
		c0.3-5.6,0.5-11.2,0.8-16.9c0.1-3.3,0.3-6.5,0.4-9.8c0-0.3,0.1-0.6,0.1-1c0,0,0.1,0,0.1,0c6.8,18,13.5,35.9,20.3,53.9
		c1-0.2,19.1-8.8,19.7-9.4c-0.2-0.4-0.3-0.8-0.5-1.3c-9.1-22-18.2-43.9-27.3-65.9c-2.3-5.6-4.6-11.1-6.9-16.7
		c-0.3-0.6-0.6-1-1.3-1.2c-2.6-0.9-5.2-1.8-7.8-2.7c-0.3-0.1-0.5-0.1-0.9-0.2c-3.8,11.6-7.5,23.1-11.3,34.8
		c-1.1-1.7-2.1-3.2-3.1-4.7c-1-1.5-2-3-3-4.6c-1-1.5-2-3-3-4.5c-1-1.5-1.9-3-3.1-4.6c-0.8,1.2-1.4,2.2-2.1,3.2
		c-0.7,1.1-1.4,2.1-2.1,3.1c-0.7,1-1.3,2-2.1,3.1c-1.9-3-3.8-5.9-5.7-9c-4.4,6-8.6,11.8-13,17.8C121.8,103.5,118.4,92,114.9,80.4z
		 M126.3,108.8c0.1,0,0.2,0,0.2,0.1c0.2-0.2,0.4-0.5,0.6-0.7c3-4.1,6-8.2,9-12.3c0.6-0.8,0.6-0.8,0-1.7c-3.5-5.4-6.9-10.9-10.4-16.3
		c-0.2-0.3-0.4-0.5-0.6-0.9c-2.6,0.8-5.2,1.7-7.8,2.6C120.5,89.3,123.4,99.1,126.3,108.8z M163.7,76.9c-0.2,0.2-0.3,0.3-0.3,0.4
		c-3.6,5.5-7.3,11.1-10.9,16.6c-0.3,0.5-0.3,0.8,0,1.2c2.9,4.3,5.7,8.7,8.6,13c0.1,0.2,0.3,0.4,0.6,0.7c3.2-9.8,6.3-19.5,9.5-29.3
		C168.6,78.7,166.2,77.8,163.7,76.9z"/>
</g>
</svg>